<svg width="65" height="65" viewBox="0 0 65 65" fill="none" xmlns="http://www.w3.org/2000/svg">
<mask id="mask0_2_3452" style="mask-type:luminance" maskUnits="userSpaceOnUse" x="0" y="0" width="65" height="65">
<path d="M64.25 0.5H0.25V64.5H64.25V0.5Z" fill="white"/>
</mask>
<g mask="url(#mask0_2_3452)">
<path d="M3.20114 54.4268C1.62484 50.3498 1.68015 14.5454 3.2683 10.496C4.64311 6.98388 6.84756 4.77548 10.2767 3.46388C14.5868 1.81647 50.3991 1.93499 54.5394 3.61005C58.0238 5.02042 60.6233 7.84511 61.6307 11.3098C62.966 15.9162 62.5473 51.3256 61.1132 54.7864C59.6673 58.2826 56.8347 60.898 53.4214 61.8856C51.529 62.4347 48.5226 62.5256 31.8589 62.5256C12.4969 62.5256 12.4969 62.5256 10.0397 61.4392C6.74879 59.9854 4.43373 57.611 3.20114 54.4268ZM32.6214 23.0905C24.4159 22.9088 24.7438 22.5138 24.7438 32.6155C24.7438 42.0338 24.653 41.856 28.6747 40.2994C30.2115 39.7029 31.9023 39.217 32.4317 39.217C32.9651 39.217 34.7428 39.8412 36.3784 40.5997L39.3611 41.9824C40.0406 22.7152 40.4001 23.2644 32.6214 23.0905Z" fill="#60D8E0" fill-opacity="0.988235"/>
</g>
</svg>
