<svg width="64" height="65" viewBox="0 0 64 65" fill="none" xmlns="http://www.w3.org/2000/svg">
<g id="Image" clip-path="url(#clip0_2_3435)">
<g id="Clip path group">
<mask id="mask0_2_3435" style="mask-type:luminance" maskUnits="userSpaceOnUse" x="0" y="0" width="64" height="65">
<g id="clip0_1476_4473">
<path id="Vector" d="M64 0.5H0V64.5H64V0.5Z" fill="white"/>
</g>
</mask>
<g mask="url(#mask0_2_3435)">
<g id="Group">
<path id="Vector_2" d="M2.92343 54.3502C1.37084 50.3404 1.44985 14.3621 3.01825 10.4431C4.40887 6.97048 6.56195 4.84505 10.0346 3.50974C14.2657 1.88209 50.003 1.89789 54.0721 3.52555C57.4775 4.89246 59.6938 7.15221 61.0291 10.6248C62.6252 14.7809 62.5817 50.5655 60.9778 54.5754C59.6227 57.9532 57.3037 60.2446 53.9062 61.5562C51.3975 62.528 51.3975 62.528 31.8222 62.528C12.2469 62.528 12.2469 62.528 9.58022 61.327C6.28936 59.8416 4.20343 57.6569 2.92343 54.3502ZM21.1556 32.689C21.1556 35.5132 22.2774 38.2216 24.2744 40.2186C26.2714 42.2156 28.9799 43.3375 31.804 43.3375C34.6282 43.3375 37.3367 42.2156 39.3337 40.2186C41.3306 38.2216 42.4525 35.5132 42.4525 32.689C42.4525 29.8648 41.3306 27.1564 39.3337 25.1594C37.3367 23.1624 34.6282 22.0405 31.804 22.0405C28.9799 22.0405 26.2714 23.1624 24.2744 25.1594C22.2774 27.1564 21.1556 29.8648 21.1556 32.689Z" fill="#994FDD" fill-opacity="0.988235"/>
<path id="Vector_3" d="M21.1556 32.6876C21.1556 29.8634 22.2774 27.1549 24.2744 25.1579C26.2714 23.161 28.9799 22.0391 31.804 22.0391C34.6282 22.0391 37.3367 23.161 39.3337 25.1579C41.3307 27.1549 42.4525 29.8634 42.4525 32.6876C42.4525 35.5117 41.3307 38.2202 39.3337 40.2172C37.3367 42.2142 34.6282 43.3361 31.804 43.3361C28.9799 43.3361 26.2714 42.2142 24.2744 40.2172C22.2774 38.2202 21.1556 35.5117 21.1556 32.6876ZM30.8148 30.3842C30.8148 33.3985 30.8148 33.3985 33.3827 35.1249C34.797 36.0731 36.1086 36.8474 36.3022 36.8474C36.4958 36.8474 36.7684 36.5511 36.9067 36.1916C37.0963 35.6978 36.5669 35.1605 34.7773 34.0267C32.3951 32.5215 32.3951 32.5215 32.3951 29.9457C32.3951 27.6306 32.316 27.3659 31.6049 27.3659C30.882 27.3659 30.8148 27.6306 30.8148 30.3842Z" fill="#F5DBDB"/>
<path id="Vector_4" d="M30.8148 30.3855C30.8148 27.6319 30.882 27.3672 31.6049 27.3672C32.3161 27.3672 32.3951 27.6319 32.3951 29.9469C32.3951 32.5227 32.3951 32.5227 34.7773 34.0279C36.5669 35.1618 37.0963 35.699 36.9067 36.1929C36.7684 36.5524 36.4958 36.8487 36.3022 36.8487C36.1086 36.8487 34.797 36.0743 33.3827 35.1262C30.8148 33.3998 30.8148 33.3998 30.8148 30.3855Z" fill="#994FDD" fill-opacity="0.988235"/>
</g>
</g>
</g>
</g>
<defs>
<clipPath id="clip0_2_3435">
<rect width="64" height="64" fill="white" transform="translate(0 0.5)"/>
</clipPath>
</defs>
</svg>
