<svg width="164" height="33" viewBox="0 0 164 33" fill="none" xmlns="http://www.w3.org/2000/svg">
<g clip-path="url(#clip0_2_3537)">
<path d="M16.9214 27.7218C16.3529 27.3871 15.6475 27.3871 15.0791 27.7218L8.22657 31.7551C6.88211 32.5464 5.23149 31.3859 5.52111 29.853L7.10309 21.4798C7.21621 20.8811 7.0215 20.2654 6.58464 19.8407L0.552195 13.9752C-0.539871 12.9135 0.081891 11.0599 1.59337 10.8714L9.58907 9.87428C10.2239 9.79511 10.7702 9.38773 11.0273 8.80187L14.3373 1.25702C14.9728 -0.191466 17.0276 -0.191467 17.6631 1.25702L20.9731 8.80187C21.2302 9.38773 21.7765 9.79511 22.4114 9.87428L30.407 10.8714C31.9186 11.0599 32.5402 12.9135 31.4483 13.9752L25.4158 19.8407C24.9789 20.2654 24.7842 20.8811 24.8973 21.4798L26.4793 29.853C26.7689 31.3859 25.1183 32.5464 23.7739 31.7551L16.9214 27.7218Z" fill="#FB923C"/>
<path d="M17.4968 26.7437C16.573 26.2 15.427 26.2 14.5032 26.7437L7.65068 30.7771C7.14651 31.0738 6.52752 30.6386 6.63613 30.0638L8.21811 21.6905C8.40194 20.7176 8.08554 19.7173 7.37563 19.027L1.34318 13.1616C0.933659 12.7635 1.16682 12.0683 1.73362 11.9977L9.72933 11.0006C10.7609 10.8719 11.6488 10.2099 12.0664 9.25791L15.3765 1.71305C15.6147 1.16987 16.3853 1.16987 16.6236 1.71305L19.9336 9.2579C20.3512 10.2099 21.2391 10.8719 22.2707 11.0006L30.2664 11.9977C30.8332 12.0683 31.0664 12.7635 30.6569 13.1616L24.6245 19.027C23.9145 19.7173 23.5981 20.7176 23.782 21.6905L25.3639 30.0638C25.4725 30.6386 24.8535 31.0738 24.3494 30.7771L17.4968 26.7437Z" stroke="#0D0D0D" stroke-opacity="0.18" stroke-width="2"/>
</g>
<g clip-path="url(#clip1_2_3537)">
<path d="M49.9214 27.7218C49.3529 27.3871 48.6475 27.3871 48.0791 27.7218L41.2266 31.7551C39.8821 32.5464 38.2315 31.3859 38.5211 29.853L40.1031 21.4798C40.2162 20.8811 40.0215 20.2654 39.5846 19.8407L33.5522 13.9752C32.4601 12.9135 33.0819 11.0599 34.5934 10.8714L42.5891 9.87428C43.2239 9.79511 43.7702 9.38773 44.0273 8.80187L47.3373 1.25702C47.9728 -0.191466 50.0276 -0.191467 50.6631 1.25702L53.9731 8.80187C54.2302 9.38773 54.7765 9.79511 55.4114 9.87428L63.407 10.8714C64.9186 11.0599 65.5402 12.9135 64.4483 13.9752L58.4158 19.8407C57.9789 20.2654 57.7842 20.8811 57.8973 21.4798L59.4793 29.853C59.7689 31.3859 58.1183 32.5464 56.7739 31.7551L49.9214 27.7218Z" fill="#FB923C"/>
<path d="M50.4968 26.7437C49.573 26.2 48.427 26.2 47.5032 26.7437L40.6507 30.7771C40.1465 31.0738 39.5275 30.6386 39.6361 30.0638L41.2181 21.6905C41.4019 20.7176 41.0855 19.7173 40.3756 19.027L34.3432 13.1616C33.9337 12.7635 34.1668 12.0683 34.7336 11.9977L42.7293 11.0006C43.7609 10.8719 44.6488 10.2099 45.0664 9.25791L48.3765 1.71305C48.6147 1.16987 49.3853 1.16987 49.6236 1.71305L52.9336 9.2579C53.3512 10.2099 54.2391 10.8719 55.2707 11.0006L63.2664 11.9977C63.8332 12.0683 64.0664 12.7635 63.6569 13.1616L57.6245 19.027C56.9145 19.7173 56.5981 20.7176 56.782 21.6905L58.3639 30.0638C58.4725 30.6386 57.8535 31.0738 57.3494 30.7771L50.4968 26.7437Z" stroke="#0D0D0D" stroke-opacity="0.18" stroke-width="2"/>
</g>
<g clip-path="url(#clip2_2_3537)">
<path d="M82.9214 27.7218C82.3529 27.3871 81.6475 27.3871 81.0791 27.7218L74.2266 31.7551C72.8821 32.5464 71.2315 31.3859 71.5211 29.853L73.1031 21.4798C73.2162 20.8811 73.0215 20.2654 72.5846 19.8407L66.5522 13.9752C65.4601 12.9135 66.0819 11.0599 67.5934 10.8714L75.5891 9.87428C76.2239 9.79511 76.7702 9.38773 77.0273 8.80187L80.3373 1.25702C80.9728 -0.191466 83.0276 -0.191467 83.6631 1.25702L86.9731 8.80187C87.2302 9.38773 87.7765 9.79511 88.4114 9.87428L96.407 10.8714C97.9186 11.0599 98.5402 12.9135 97.4483 13.9752L91.4158 19.8407C90.9789 20.2654 90.7842 20.8811 90.8973 21.4798L92.4793 29.853C92.7689 31.3859 91.1183 32.5464 89.7739 31.7551L82.9214 27.7218Z" fill="#FB923C"/>
<path d="M83.4968 26.7437C82.573 26.2 81.427 26.2 80.5032 26.7437L73.6507 30.7771C73.1465 31.0738 72.5275 30.6386 72.6361 30.0638L74.2181 21.6905C74.4019 20.7176 74.0855 19.7173 73.3756 19.027L67.3432 13.1616C66.9337 12.7635 67.1668 12.0683 67.7336 11.9977L75.7293 11.0006C76.7609 10.8719 77.6488 10.2099 78.0664 9.25791L81.3765 1.71305C81.6147 1.16987 82.3853 1.16987 82.6236 1.71305L85.9336 9.2579C86.3512 10.2099 87.2391 10.8719 88.2707 11.0006L96.2664 11.9977C96.8332 12.0683 97.0664 12.7635 96.6569 13.1616L90.6245 19.027C89.9145 19.7173 89.5981 20.7176 89.782 21.6905L91.3639 30.0638C91.4725 30.6386 90.8535 31.0738 90.3494 30.7771L83.4968 26.7437Z" stroke="#0D0D0D" stroke-opacity="0.18" stroke-width="2"/>
</g>
<g clip-path="url(#clip3_2_3537)">
<path d="M115.921 27.7218C115.353 27.3871 114.648 27.3871 114.079 27.7218L107.227 31.7551C105.882 32.5464 104.231 31.3859 104.521 29.853L106.103 21.4798C106.216 20.8811 106.022 20.2654 105.585 19.8407L99.5522 13.9752C98.4601 12.9135 99.0819 11.0599 100.593 10.8714L108.589 9.87428C109.224 9.79511 109.77 9.38773 110.027 8.80187L113.337 1.25702C113.973 -0.191466 116.028 -0.191467 116.663 1.25702L119.973 8.80187C120.23 9.38773 120.777 9.79511 121.411 9.87428L129.407 10.8714C130.919 11.0599 131.54 12.9135 130.448 13.9752L124.416 19.8407C123.979 20.2654 123.784 20.8811 123.897 21.4798L125.479 29.853C125.769 31.3859 124.118 32.5464 122.774 31.7551L115.921 27.7218Z" fill="#FB923C"/>
<path d="M116.497 26.7437C115.573 26.2 114.427 26.2 113.503 26.7437L106.651 30.7771C106.147 31.0738 105.528 30.6386 105.636 30.0638L107.218 21.6905C107.402 20.7176 107.086 19.7173 106.376 19.027L100.343 13.1616C99.9337 12.7635 100.167 12.0683 100.734 11.9977L108.729 11.0006C109.761 10.8719 110.649 10.2099 111.066 9.25791L114.376 1.71305C114.615 1.16987 115.385 1.16987 115.624 1.71305L118.934 9.2579C119.351 10.2099 120.239 10.8719 121.271 11.0006L129.266 11.9977C129.833 12.0683 130.066 12.7635 129.657 13.1616L123.624 19.027C122.915 19.7173 122.598 20.7176 122.782 21.6905L124.364 30.0638C124.472 30.6386 123.854 31.0738 123.349 30.7771L116.497 26.7437Z" stroke="#0D0D0D" stroke-opacity="0.18" stroke-width="2"/>
</g>
<g clip-path="url(#clip4_2_3537)">
<path d="M148.921 27.7218C148.353 27.3871 147.648 27.3871 147.079 27.7218L140.227 31.7551C138.882 32.5464 137.231 31.3859 137.521 29.853L139.103 21.4798C139.216 20.8811 139.022 20.2654 138.585 19.8407L132.552 13.9752C131.46 12.9135 132.082 11.0599 133.593 10.8714L141.589 9.87428C142.224 9.79511 142.77 9.38773 143.027 8.80187L146.337 1.25702C146.973 -0.191466 149.028 -0.191467 149.663 1.25702L152.973 8.80187C153.23 9.38773 153.777 9.79511 154.411 9.87428L162.407 10.8714C163.919 11.0599 164.54 12.9135 163.448 13.9752L157.416 19.8407C156.979 20.2654 156.784 20.8811 156.897 21.4798L158.479 29.853C158.769 31.3859 157.118 32.5464 155.774 31.7551L148.921 27.7218Z" fill="#FB923C"/>
<path d="M149.497 26.7437C148.573 26.2 147.427 26.2 146.503 26.7437L139.651 30.7771C139.147 31.0738 138.528 30.6386 138.636 30.0638L140.218 21.6905C140.402 20.7176 140.086 19.7173 139.376 19.027L133.343 13.1616C132.934 12.7635 133.167 12.0683 133.734 11.9977L141.729 11.0006C142.761 10.8719 143.649 10.2099 144.066 9.25791L147.376 1.71305C147.615 1.16987 148.385 1.16987 148.624 1.71305L151.934 9.2579C152.351 10.2099 153.239 10.8719 154.271 11.0006L162.266 11.9977C162.833 12.0683 163.066 12.7635 162.657 13.1616L156.624 19.027C155.915 19.7173 155.598 20.7176 155.782 21.6905L157.364 30.0638C157.472 30.6386 156.854 31.0738 156.349 30.7771L149.497 26.7437Z" stroke="#0D0D0D" stroke-opacity="0.18" stroke-width="2"/>
</g>
<defs>
<clipPath id="clip0_2_3537">
<rect y="0.170654" width="32" height="32" rx="1.6" fill="white"/>
</clipPath>
<clipPath id="clip1_2_3537">
<rect x="33" y="0.170654" width="32" height="32" rx="1.6" fill="white"/>
</clipPath>
<clipPath id="clip2_2_3537">
<rect x="66" y="0.170654" width="32" height="32" rx="1.6" fill="white"/>
</clipPath>
<clipPath id="clip3_2_3537">
<rect x="99" y="0.170654" width="32" height="32" rx="1.6" fill="white"/>
</clipPath>
<clipPath id="clip4_2_3537">
<rect x="132" y="0.170654" width="32" height="32" rx="1.6" fill="white"/>
</clipPath>
</defs>
</svg>
