<svg width="32" height="33" viewBox="0 0 32 33" fill="none" xmlns="http://www.w3.org/2000/svg">
<g id="Star 1">
<g clip-path="url(#clip0_2_3538)">
<path id="Vector" d="M16.9214 27.7218C16.3529 27.3871 15.6475 27.3871 15.0791 27.7218L8.22657 31.7551C6.88211 32.5464 5.23149 31.3859 5.52111 29.853L7.10309 21.4798C7.21621 20.8811 7.0215 20.2654 6.58464 19.8407L0.552195 13.9752C-0.539871 12.9135 0.081891 11.0599 1.59337 10.8714L9.58907 9.87428C10.2239 9.79511 10.7702 9.38773 11.0273 8.80187L14.3373 1.25702C14.9728 -0.191466 17.0276 -0.191467 17.6631 1.25702L20.9731 8.80187C21.2302 9.38773 21.7765 9.79511 22.4114 9.87428L30.407 10.8714C31.9186 11.0599 32.5402 12.9135 31.4483 13.9752L25.4158 19.8407C24.9789 20.2654 24.7842 20.8811 24.8973 21.4798L26.4793 29.853C26.7689 31.3859 25.1183 32.5464 23.7739 31.7551L16.9214 27.7218Z" fill="#FB923C"/>
<path id="Vector_2" d="M17.4968 26.7437C16.573 26.2 15.427 26.2 14.5032 26.7437L7.65068 30.7771C7.14651 31.0738 6.52752 30.6386 6.63613 30.0638L8.21811 21.6905C8.40194 20.7176 8.08554 19.7173 7.37563 19.027L1.34318 13.1616C0.933659 12.7635 1.16682 12.0683 1.73362 11.9977L9.72933 11.0006C10.7609 10.8719 11.6488 10.2099 12.0664 9.25791L15.3765 1.71305C15.6147 1.16987 16.3853 1.16987 16.6236 1.71305L19.9336 9.2579C20.3512 10.2099 21.2391 10.8719 22.2707 11.0006L30.2664 11.9977C30.8332 12.0683 31.0664 12.7635 30.6569 13.1616L24.6245 19.027C23.9145 19.7173 23.5981 20.7176 23.782 21.6905L25.3639 30.0638C25.4725 30.6386 24.8535 31.0738 24.3494 30.7771L17.4968 26.7437Z" stroke="#0D0D0D" stroke-opacity="0.18" stroke-width="2"/>
</g>
</g>
<defs>
<clipPath id="clip0_2_3538">
<rect y="0.170654" width="32" height="32" rx="1.6" fill="white"/>
</clipPath>
</defs>
</svg>
