<svg width="62" height="61" viewBox="0 0 62 61" fill="none" xmlns="http://www.w3.org/2000/svg">
<path d="M1.92742 52.3024C0.552604 48.6836 0.426195 13.2545 1.7773 9.1617C2.99804 5.45203 4.95359 3.3029 8.50125 1.76216C12.2622 0.126599 47.3358 -0.288211 52.3847 1.24067C55.9284 2.31129 58.8914 5.19129 60.1437 8.7785C61.7793 13.456 61.3052 49.857 59.559 53.4955C58.0459 56.652 55.7072 58.7024 52.3965 59.7809C50.3501 60.4486 48.5131 60.5118 30.7037 60.5197C11.2469 60.5276 11.2469 60.5276 8.58026 59.3266C5.26569 57.8333 3.19952 55.6525 1.92742 52.3024ZM20.7284 26.7459C20.7284 29.5192 22.2454 31.937 26.6622 36.1878C28.8311 38.2777 30.7985 39.9844 31.0356 39.9844C31.2726 39.9844 33.1649 38.3409 35.243 36.3301C37.321 34.3192 39.5254 31.8145 40.1457 30.7597C43.4207 25.1933 39.1817 19.5636 33.3743 21.7641C31.0435 22.6491 31.0435 22.6491 28.7956 21.7483C24.7146 20.1049 20.7284 22.574 20.7284 26.7459Z" fill="#2D87FC" fill-opacity="0.988235"/>
<path d="M20.7284 26.7456C20.7284 22.5738 24.7146 20.1046 28.7956 21.7481C31.0435 22.6488 31.0435 22.6488 33.3743 21.7639C39.1817 19.5634 43.4207 25.193 40.1457 30.7594C39.5254 31.8143 37.321 34.3189 35.243 36.3298C33.1649 38.3407 31.2726 39.9841 31.0356 39.9841C30.7985 39.9841 28.8311 38.2775 26.6622 36.1876C22.2454 31.9367 20.7284 29.5189 20.7284 26.7456Z" fill="#F5DBDB"/>
</svg>
