<svg width="65" height="65" viewBox="0 0 65 65" fill="none" xmlns="http://www.w3.org/2000/svg">
<g id="Image" clip-path="url(#clip0_2_3420)">
<g id="Clip path group">
<mask id="mask0_2_3420" style="mask-type:luminance" maskUnits="userSpaceOnUse" x="0" y="0" width="65" height="65">
<g id="clip0_1476_4483">
<path id="Vector" d="M64.75 0.5H0.75V64.5H64.75V0.5Z" fill="white"/>
</g>
</mask>
<g mask="url(#mask0_2_3420)">
<g id="Group">
<path id="Vector_2" d="M3.36922 53.6936C2.03391 49.0951 2.45268 13.6818 3.8828 10.2171C5.32873 6.70895 8.13762 4.11339 11.5589 3.12179C16.1574 1.78648 51.5707 2.20524 55.0354 3.63537C58.5436 5.08129 61.1391 7.89018 62.1307 11.3114C63.3949 15.665 63.0631 51.1178 61.7278 54.5233C60.3846 57.9485 58.0932 60.228 54.6562 61.5554C52.1475 62.5272 52.1475 62.5272 32.5722 62.5272C12.9969 62.5272 12.9969 62.5272 10.3302 61.3539C6.94058 59.8605 4.32132 56.9766 3.36922 53.6936ZM22.0833 24.2062V40.7988H43.4167V24.2062H22.0833Z" fill="#6DCE96" fill-opacity="0.988235"/>
<path id="Vector_3" d="M22.0833 24.2031H43.4167V40.7957H22.0833V24.2031ZM24.4537 34.4747V38.8204H35.9105V34.4747H24.4537ZM37.0957 29.3389V38.8204H41.0463V29.3389H37.0957ZM24.4537 29.3389V33.6846H35.9105V29.3389H24.4537Z" fill="#F5DBDB"/>
<path id="Vector_4" d="M24.4537 34.4766H35.9105V38.8222H24.4537V34.4766Z" fill="#6DCE96" fill-opacity="0.988235"/>
<path id="Vector_5" d="M24.4537 29.3359H35.9105V33.6816H24.4537V29.3359Z" fill="#6DCE96" fill-opacity="0.988235"/>
<path id="Vector_6" d="M37.0957 29.3359H41.0463V38.8174H37.0957V29.3359Z" fill="#6DCE96" fill-opacity="0.988235"/>
</g>
</g>
</g>
</g>
<defs>
<clipPath id="clip0_2_3420">
<rect width="64" height="64" fill="white" transform="translate(0.75 0.5)"/>
</clipPath>
</defs>
</svg>
