<svg width="65" height="65" viewBox="0 0 65 65" fill="none" xmlns="http://www.w3.org/2000/svg">
<g id="Image" clip-path="url(#clip0_2_3396)">
<g id="Clip path group">
<mask id="mask0_2_3396" style="mask-type:luminance" maskUnits="userSpaceOnUse" x="0" y="0" width="65" height="65">
<g id="clip0_1476_4478">
<path id="Vector" d="M64.75 0.5H0.75V64.5H64.75V0.5Z" fill="white"/>
</g>
</mask>
<g mask="url(#mask0_2_3396)">
<g id="Group">
<path id="Vector_2" d="M3.72082 54.4449C2.3223 50.7234 2.14453 15.3733 3.50354 11.233C4.72033 7.53131 6.73909 5.29527 10.2551 3.76243C14.032 2.11897 49.0897 1.71206 54.1228 3.2528C57.7297 4.35897 60.4043 6.90317 61.7633 10.5219C63.1737 14.279 63.3633 49.6054 61.9964 53.7733C60.7796 57.475 58.7609 59.7111 55.2448 61.2439C52.2937 62.5279 52.2937 62.5279 32.6473 62.5279C12.9969 62.5279 12.9969 62.5279 10.5514 61.4414C7.09465 59.9086 4.94947 57.7081 3.72082 54.4449ZM22.0754 32.3728C22.0833 36.8884 22.2295 38.6661 22.6759 39.5827C23.2685 40.7995 23.2685 40.7995 32.4537 40.7995C41.6389 40.8034 41.6389 40.8034 42.5357 39.713C43.3179 38.7649 43.4285 38.1842 43.4246 35.1343C43.4167 30.915 43.1599 30.358 39.6675 26.9723C37.0167 24.4044 37.0167 24.4044 30.4586 24.278C21.7949 24.1121 22.0675 23.8513 22.0754 32.3728Z" fill="#F7B2B7" fill-opacity="0.988235"/>
<path id="Vector_3" d="M22.0754 32.3725C22.0675 23.851 21.7949 24.1118 30.4586 24.2777C37.0167 24.4041 37.0167 24.4041 39.6675 26.972C43.1599 30.3577 43.4167 30.9147 43.4246 35.134C43.4285 38.1839 43.3179 38.7646 42.5357 39.7127C41.6389 40.8031 41.6389 40.8031 32.4537 40.7992C23.2685 40.7992 23.2685 40.7992 22.6759 39.5824C22.2295 38.6658 22.0833 36.8881 22.0754 32.3725ZM41.0463 31.7127L41.4413 30.9226L35.9105 25.7868V31.3177L41.0463 31.7127Z" fill="#F5DBDB"/>
<path id="Vector_4" d="M41.0463 31.7072L35.9105 31.3121V25.7812L41.4414 30.9171L41.0463 31.7072Z" fill="#F7B2B7" fill-opacity="0.988235"/>
</g>
</g>
</g>
</g>
<defs>
<clipPath id="clip0_2_3396">
<rect width="64" height="64" fill="white" transform="translate(0.75 0.5)"/>
</clipPath>
</defs>
</svg>
