<svg width="28" height="29" viewBox="0 0 28 29" fill="none" xmlns="http://www.w3.org/2000/svg">
<g id="Icon L">
<path id="Vector" d="M14.5599 26.1666C8.3741 26.1666 3.35986 20.9434 3.35986 14.4999C3.35986 8.05642 8.3741 2.83325 14.5599 2.83325C20.7456 2.83325 25.7599 8.05642 25.7599 14.4999C25.7599 20.9434 20.7456 26.1666 14.5599 26.1666ZM14.5599 23.8333C16.9362 23.8333 19.2152 22.8499 20.8955 21.0996C22.5759 19.3492 23.5199 16.9753 23.5199 14.4999C23.5199 12.0246 22.5759 9.65059 20.8955 7.90026C19.2152 6.14992 16.9362 5.16659 14.5599 5.16659C12.1835 5.16659 9.90451 6.14992 8.22419 7.90026C6.54386 9.65059 5.59986 12.0246 5.59986 14.4999C5.59986 16.9753 6.54386 19.3492 8.22419 21.0996C9.90451 22.8499 12.1835 23.8333 14.5599 23.8333Z" fill="#1A1A1A"/>
<path id="Vector_2" d="M11.2 9.84902C11.2 9.31631 11.9169 9.04953 12.3363 9.42621L19.9202 14.0771C20.1801 14.3106 20.1801 14.6892 19.9202 14.9227L12.3363 19.5736C11.9169 19.9503 11.2 19.6835 11.2 19.1508V9.84902Z" fill="#1A1A1A"/>
</g>
</svg>
