<svg width="64" height="65" viewBox="0 0 64 65" fill="none" xmlns="http://www.w3.org/2000/svg">
<g id="Image" clip-path="url(#clip0_2_3409)">
<g id="Clip path group">
<mask id="mask0_2_3409" style="mask-type:luminance" maskUnits="userSpaceOnUse" x="0" y="0" width="64" height="65">
<g id="clip0_1476_4469">
<path id="Vector" d="M64 0.5H0V64.5H64V0.5Z" fill="white"/>
</g>
</mask>
<g mask="url(#mask0_2_3409)">
<g id="Group">
<path id="Vector_2" d="M2.88789 54.2688C1.54863 50.5553 1.45776 15.1577 2.77727 11.1558C4.00196 7.43428 5.94962 5.29699 9.53283 3.74045C14.1156 1.74934 50.7575 1.90737 54.9926 3.93798C58.1491 5.45107 60.1995 7.78983 61.278 11.1005C62.4158 14.5888 62.404 50.2471 61.2662 53.937C60.1916 57.4254 57.2761 60.4042 53.7323 61.6328C51.2119 62.5098 50.8681 62.5217 31.7077 62.5217C12.2469 62.5217 12.2469 62.5217 9.78172 61.4353C6.42369 59.9538 4.04542 57.4846 2.88789 54.2688ZM26.5007 37.8975C26.0504 39.6713 25.679 41.2279 25.679 41.3543C25.679 41.4807 25.762 41.5834 25.8607 41.5834C25.9635 41.5834 27.3857 40.7696 29.0212 39.778C32 37.9686 32 37.9686 35.0104 39.7938C38.6449 42.0022 38.562 42.0614 37.519 37.9844C36.6775 34.6856 36.6775 34.6856 39.3758 32.2205C42.4138 29.4432 42.5877 29.6802 37.0923 29.1587C34.876 28.9493 34.876 28.9493 33.596 25.8837C32.2528 22.6679 32.0988 22.3874 31.842 22.6521C31.7551 22.7429 31.1111 24.1967 30.4039 25.8837C29.1239 28.9493 29.1239 28.9493 26.9077 29.1548C21.6494 29.6407 21.6533 29.6328 24.6558 32.2995C27.3264 34.6698 27.3264 34.6698 26.5007 37.8975Z" fill="#EFC64C" fill-opacity="0.988235"/>
<path id="Vector_3" d="M26.5007 37.8996C27.3264 34.672 27.3264 34.672 24.6558 32.3016C21.6533 29.6349 21.6494 29.6428 26.9077 29.1569C29.124 28.9515 29.1239 28.9515 30.4039 25.8858C31.1111 24.1989 31.7551 22.7451 31.842 22.6542C32.0988 22.3895 32.2528 22.67 33.596 25.8858C34.876 28.9515 34.876 28.9515 37.0923 29.1609C42.5877 29.6823 42.4138 29.4453 39.3758 32.2226C36.6775 34.6878 36.6775 34.6878 37.519 37.9865C38.562 42.0636 38.6449 42.0043 35.0104 39.7959C32 37.9707 32 37.9707 29.0212 39.7801C27.3857 40.7717 25.9635 41.5855 25.8607 41.5855C25.762 41.5855 25.679 41.4828 25.679 41.3564C25.679 41.23 26.0504 39.6734 26.5007 37.8996Z" fill="#F5DBDB"/>
</g>
</g>
</g>
</g>
<defs>
<clipPath id="clip0_2_3409">
<rect width="64" height="64" fill="white" transform="translate(0 0.5)"/>
</clipPath>
</defs>
</svg>
